<svg width="186" height="267" viewBox="0 0 186 267" fill="none" xmlns="http://www.w3.org/2000/svg">
<path opacity="0.1" d="M255.426 90.507L164.433 5.74571C162.156 3.61919 158.99 2.77994 155.889 3.50416L144.093 6.59894L43.9505 32.8814L34.2584 35.4173C33.9974 35.4736 33.7176 35.5501 33.3319 35.6687C31.868 36.1702 30.5412 37.0493 29.4843 38.1849C28.2011 39.5715 27.3844 41.2872 27.1239 43.0653L4.9114 167.033C4.86866 167.239 4.8262 167.456 4.79373 167.682C4.31781 170.777 5.39836 173.887 7.6763 176.013L98.6689 260.774C100.957 262.901 104.122 263.75 107.165 263.037C107.378 262.982 107.59 262.927 107.686 262.895L119.019 259.921L219.152 233.649L228.738 231.125C228.863 231.102 228.999 231.069 229.134 231.036C229.327 230.981 229.52 230.927 229.761 230.852C231.225 230.35 232.552 229.481 233.608 228.336C234.712 227.13 235.478 225.69 235.842 224.124L258.191 99.4971C258.234 99.3003 258.267 99.0939 258.309 98.8383C258.785 95.7431 257.704 92.6335 255.426 90.507ZM69.1172 142.067C61.4414 144.37 53.7944 146.661 46.1378 148.954C39.3684 150.986 32.5894 153.018 25.7912 155.06C27.806 143.85 29.8119 132.67 31.8273 121.479L36.3515 96.2767C37.7378 88.6064 39.1137 80.9169 40.4988 73.2075L42.3374 62.9808L78.6027 96.7658C69.763 110.45 66.5691 125.675 69.1172 142.067ZM106.638 150.606L113.465 148.572C118.451 147.09 123.447 145.607 128.421 144.067C129.269 143.788 129.377 143.834 129.967 144.384C136.613 150.662 143.306 156.899 150 163.126L157.662 170.264C148.1 177.336 135.642 179.755 123.015 176.896C110.124 173.976 99.2111 165.756 93.2736 154.655C97.7375 153.285 102.183 151.946 106.638 150.606ZM123.679 125.066C123.636 125.263 123.558 125.627 123.496 125.815C123.467 125.825 123.438 125.836 123.399 125.847C113.696 128.676 103.861 131.637 94.3527 134.491L87.3518 136.588C85.7366 123.926 89.5754 111.539 98.0734 102.247C103.572 96.2308 110.553 92.0796 118.276 90.0498C122.494 88.9416 126.935 88.4727 131.483 88.6856L123.679 125.066ZM163.416 150.309C156.472 143.835 149.529 137.361 142.547 130.917C141.798 130.234 141.824 130.106 141.979 129.417C143.841 121.048 145.635 112.642 147.428 104.246L149.669 93.7831C149.711 93.5765 149.754 93.3698 149.797 93.1729C161.74 98.6439 170.616 109.104 174.365 122.272C177.824 134.442 176.238 147.048 170.159 156.594L163.416 150.309ZM135.502 69.9834C118.96 68.6739 104.117 73.0392 91.3199 82.9813L55.0347 49.1773L145.05 25.5117C141.855 40.3652 138.696 55.1004 135.502 69.9834ZM58.7701 164.971L74.8835 160.139C78.6762 167.642 83.3783 173.955 89.202 179.356C94.8963 184.652 101.474 188.858 109.26 192.158C106.111 206.883 102.96 221.569 99.7465 236.462L31.7119 173.088C40.7473 170.375 49.7441 167.673 58.7701 164.971ZM124.666 210.287L127.611 196.566C144.055 197.868 158.888 193.503 171.764 183.569L208.029 217.354C197.565 220.107 187.149 222.84 176.763 225.572L118.072 240.998C120.27 230.771 122.459 220.554 124.666 210.287ZM193.947 124.473C206.444 120.723 218.903 116.983 231.429 113.232L237.311 111.469C234.542 126.908 231.77 142.278 229 157.686L220.738 203.618L184.473 169.833C193.332 156.139 196.515 140.904 193.947 124.473ZM188.229 106.381C180.689 91.5985 169.14 80.853 153.852 74.3914L163.366 30.0576L231.41 93.4411C216.936 97.7861 202.674 102.057 188.229 106.381Z" fill="#EB674F"/>
</svg>
